<svg width="26" height="22" viewBox="0 0 26 22" fill="none" xmlns="http://www.w3.org/2000/svg">
<path d="M12.9433 22C12.7729 22.001 12.6041 21.9683 12.4464 21.9039C12.2888 21.8395 12.1453 21.7446 12.0244 21.6247L1.96884 11.5562C0.707511 10.2817 0 8.56095 0 6.76781C0 4.97467 0.707511 3.25396 1.96884 1.97944C3.24004 0.711835 4.962 0 6.75721 0C8.55242 0 10.2744 0.711835 11.5456 1.97944L12.9433 3.37713L14.3409 1.97944C15.6121 0.711835 17.3341 0 19.1293 0C20.9245 0 22.6465 0.711835 23.9177 1.97944C25.179 3.25396 25.8865 4.97467 25.8865 6.76781C25.8865 8.56095 25.179 10.2817 23.9177 11.5562L13.8621 21.6247C13.7412 21.7446 13.5978 21.8395 13.4401 21.9039C13.2824 21.9683 13.1136 22.001 12.9433 22ZM6.75721 2.5877C6.20936 2.58522 5.66647 2.69146 5.15998 2.90028C4.65348 3.1091 4.19345 3.41634 3.80654 3.8042C3.02495 4.58991 2.5862 5.65309 2.5862 6.76134C2.5862 7.86959 3.02495 8.93277 3.80654 9.71848L12.9433 18.8681L22.08 9.71848C22.8616 8.93277 23.3003 7.86959 23.3003 6.76134C23.3003 5.65309 22.8616 4.58991 22.08 3.8042C21.2823 3.05062 20.2266 2.63079 19.1293 2.63079C18.032 2.63079 16.9763 3.05062 16.1786 3.8042L13.8621 6.13367C13.7418 6.25497 13.5987 6.35125 13.441 6.41695C13.2833 6.48266 13.1141 6.51648 12.9433 6.51648C12.7724 6.51648 12.6033 6.48266 12.4456 6.41695C12.2879 6.35125 12.1447 6.25497 12.0244 6.13367L9.70788 3.8042C9.32096 3.41634 8.86094 3.1091 8.35444 2.90028C7.84795 2.69146 7.30505 2.58522 6.75721 2.5877Z" fill="#393939"/>
</svg>
